<svg width="392" height="392" viewBox="0 0 392 392" fill="none" xmlns="http://www.w3.org/2000/svg">
<rect x="367" y="391" width="1.00002" height="367" transform="rotate(90 367 391)" fill="#C5C7CD"/>
<rect x="1" y="377" width="15" height="0.999999" transform="rotate(90 1 377)" fill="#C5C7CD"/>
<rect x="7" y="382" width="9" height="1" transform="rotate(90 7 382)" fill="#C5C7CD"/>
<rect x="13" y="382" width="9" height="1" transform="rotate(90 13 382)" fill="#C5C7CD"/>
<rect x="19" y="382" width="9" height="1" transform="rotate(90 19 382)" fill="#C5C7CD"/>
<rect x="25" y="382" width="9" height="1" transform="rotate(90 25 382)" fill="#C5C7CD"/>
<rect x="31" y="382" width="9" height="1" transform="rotate(90 31 382)" fill="#C5C7CD"/>
<rect x="37" y="382" width="9" height="1" transform="rotate(90 37 382)" fill="#C5C7CD"/>
<rect x="43" y="382" width="9" height="1" transform="rotate(90 43 382)" fill="#C5C7CD"/>
<rect x="49" y="382" width="9" height="1" transform="rotate(90 49 382)" fill="#C5C7CD"/>
<rect x="55" y="382" width="9" height="1" transform="rotate(90 55 382)" fill="#C5C7CD"/>
<rect x="61" y="382" width="9" height="1" transform="rotate(90 61 382)" fill="#C5C7CD"/>
<rect x="67" y="382" width="9" height="1" transform="rotate(90 67 382)" fill="#C5C7CD"/>
<rect x="73" y="382" width="9" height="1" transform="rotate(90 73 382)" fill="#C5C7CD"/>
<rect x="79" y="382" width="9" height="1" transform="rotate(90 79 382)" fill="#C5C7CD"/>
<rect x="85" y="382" width="9" height="1" transform="rotate(90 85 382)" fill="#C5C7CD"/>
<rect x="91" y="382" width="9" height="1" transform="rotate(90 91 382)" fill="#C5C7CD"/>
<rect x="97" y="382" width="9" height="1" transform="rotate(90 97 382)" fill="#C5C7CD"/>
<rect x="103" y="382" width="9" height="1" transform="rotate(90 103 382)" fill="#C5C7CD"/>
<rect x="109" y="382" width="9" height="1" transform="rotate(90 109 382)" fill="#C5C7CD"/>
<rect x="115" y="382" width="9" height="1" transform="rotate(90 115 382)" fill="#C5C7CD"/>
<rect x="121" y="382" width="9" height="1" transform="rotate(90 121 382)" fill="#C5C7CD"/>
<rect x="127" y="382" width="9" height="1" transform="rotate(90 127 382)" fill="#C5C7CD"/>
<rect x="133" y="382" width="9" height="1" transform="rotate(90 133 382)" fill="#C5C7CD"/>
<rect x="139" y="382" width="9" height="1" transform="rotate(90 139 382)" fill="#C5C7CD"/>
<rect x="145" y="382" width="9" height="1" transform="rotate(90 145 382)" fill="#C5C7CD"/>
<rect x="151" y="382" width="9" height="1" transform="rotate(90 151 382)" fill="#C5C7CD"/>
<rect x="157" y="382" width="9" height="1" transform="rotate(90 157 382)" fill="#C5C7CD"/>
<rect x="163" y="382" width="9" height="1" transform="rotate(90 163 382)" fill="#C5C7CD"/>
<rect x="169" y="382" width="9" height="1" transform="rotate(90 169 382)" fill="#C5C7CD"/>
<rect x="175" y="382" width="9" height="1" transform="rotate(90 175 382)" fill="#C5C7CD"/>
<rect x="181" y="382" width="9" height="1" transform="rotate(90 181 382)" fill="#C5C7CD"/>
<rect x="187" y="376" width="15" height="1" transform="rotate(90 187 376)" fill="#0069B4"/>
<rect x="193" y="382" width="9" height="1" transform="rotate(90 193 382)" fill="#C5C7CD"/>
<rect x="199" y="382" width="9" height="1" transform="rotate(90 199 382)" fill="#C5C7CD"/>
<rect x="205" y="382" width="9" height="1" transform="rotate(90 205 382)" fill="#C5C7CD"/>
<rect x="211" y="382" width="9" height="1" transform="rotate(90 211 382)" fill="#C5C7CD"/>
<rect x="217" y="382" width="9" height="1" transform="rotate(90 217 382)" fill="#C5C7CD"/>
<rect x="223" y="382" width="9" height="1" transform="rotate(90 223 382)" fill="#C5C7CD"/>
<rect x="229" y="382" width="9" height="1" transform="rotate(90 229 382)" fill="#C5C7CD"/>
<rect x="235" y="382" width="9" height="1" transform="rotate(90 235 382)" fill="#C5C7CD"/>
<rect x="241" y="382" width="9" height="1" transform="rotate(90 241 382)" fill="#C5C7CD"/>
<rect x="247" y="382" width="9" height="1" transform="rotate(90 247 382)" fill="#C5C7CD"/>
<rect x="253" y="382" width="9" height="1" transform="rotate(90 253 382)" fill="#C5C7CD"/>
<rect x="259" y="382" width="9" height="1" transform="rotate(90 259 382)" fill="#C5C7CD"/>
<rect x="265" y="382" width="9" height="1" transform="rotate(90 265 382)" fill="#C5C7CD"/>
<rect x="271" y="382" width="9" height="1" transform="rotate(90 271 382)" fill="#C5C7CD"/>
<rect x="277" y="382" width="9" height="1" transform="rotate(90 277 382)" fill="#C5C7CD"/>
<rect x="283" y="382" width="9" height="1" transform="rotate(90 283 382)" fill="#C5C7CD"/>
<rect x="289" y="382" width="9" height="1" transform="rotate(90 289 382)" fill="#C5C7CD"/>
<rect x="295" y="382" width="9" height="1" transform="rotate(90 295 382)" fill="#C5C7CD"/>
<rect x="301" y="382" width="9" height="1" transform="rotate(90 301 382)" fill="#C5C7CD"/>
<rect x="307" y="382" width="9" height="1" transform="rotate(90 307 382)" fill="#C5C7CD"/>
<rect x="313" y="382" width="9" height="1" transform="rotate(90 313 382)" fill="#C5C7CD"/>
<rect x="319" y="382" width="9" height="1" transform="rotate(90 319 382)" fill="#C5C7CD"/>
<rect x="325" y="382" width="9" height="1" transform="rotate(90 325 382)" fill="#C5C7CD"/>
<rect x="331" y="382" width="9" height="1" transform="rotate(90 331 382)" fill="#C5C7CD"/>
<rect x="337" y="382" width="9" height="1" transform="rotate(90 337 382)" fill="#C5C7CD"/>
<rect x="343" y="382" width="9" height="1" transform="rotate(90 343 382)" fill="#C5C7CD"/>
<rect x="349" y="382" width="9" height="1" transform="rotate(90 349 382)" fill="#C5C7CD"/>
<rect x="355" y="382" width="9" height="1" transform="rotate(90 355 382)" fill="#C5C7CD"/>
<rect x="361" y="382" width="9" height="1" transform="rotate(90 361 382)" fill="#C5C7CD"/>
<rect x="367" y="376" width="15" height="1" transform="rotate(90 367 376)" fill="#C5C7CD"/>
<rect x="391" width="1.00002" height="367" fill="#C5C7CD"/>
<rect x="377" y="366" width="15" height="0.999999" fill="#C5C7CD"/>
<rect x="382" y="360" width="9" height="1" fill="#C5C7CD"/>
<rect x="382" y="354" width="9" height="1" fill="#C5C7CD"/>
<rect x="382" y="348" width="9" height="1" fill="#C5C7CD"/>
<rect x="382" y="342" width="9" height="1" fill="#C5C7CD"/>
<rect x="382" y="336" width="9" height="1" fill="#C5C7CD"/>
<rect x="382" y="330" width="9" height="1" fill="#C5C7CD"/>
<rect x="382" y="324" width="9" height="1" fill="#C5C7CD"/>
<rect x="382" y="318" width="9" height="1" fill="#C5C7CD"/>
<rect x="382" y="312" width="9" height="1" fill="#C5C7CD"/>
<rect x="382" y="306" width="9" height="1" fill="#C5C7CD"/>
<rect x="382" y="300" width="9" height="1" fill="#C5C7CD"/>
<rect x="382" y="294" width="9" height="1" fill="#C5C7CD"/>
<rect x="382" y="288" width="9" height="1" fill="#C5C7CD"/>
<rect x="382" y="282" width="9" height="1" fill="#C5C7CD"/>
<rect x="382" y="276" width="9" height="1" fill="#C5C7CD"/>
<rect x="382" y="270" width="9" height="1" fill="#C5C7CD"/>
<rect x="382" y="264" width="9" height="1" fill="#C5C7CD"/>
<rect x="382" y="258" width="9" height="1" fill="#C5C7CD"/>
<rect x="382" y="252" width="9" height="1" fill="#C5C7CD"/>
<rect x="382" y="246" width="9" height="1" fill="#C5C7CD"/>
<rect x="382" y="240" width="9" height="1" fill="#C5C7CD"/>
<rect x="382" y="234" width="9" height="1" fill="#C5C7CD"/>
<rect x="382" y="228" width="9" height="1" fill="#C5C7CD"/>
<rect x="382" y="222" width="9" height="1" fill="#C5C7CD"/>
<rect x="382" y="216" width="9" height="1" fill="#C5C7CD"/>
<rect x="382" y="210" width="9" height="1" fill="#C5C7CD"/>
<rect x="382" y="204" width="9" height="1" fill="#C5C7CD"/>
<rect x="382" y="198" width="9" height="1" fill="#C5C7CD"/>
<rect x="382" y="192" width="9" height="1" fill="#C5C7CD"/>
<rect x="382" y="186" width="9" height="1" fill="#C5C7CD"/>
<rect x="376" y="180" width="15" height="1" fill="#0069B4"/>
<rect x="382" y="174" width="9" height="1" fill="#C5C7CD"/>
<rect x="382" y="168" width="9" height="1" fill="#C5C7CD"/>
<rect x="382" y="162" width="9" height="1" fill="#C5C7CD"/>
<rect x="382" y="156" width="9" height="1" fill="#C5C7CD"/>
<rect x="382" y="150" width="9" height="1" fill="#C5C7CD"/>
<rect x="382" y="144" width="9" height="1" fill="#C5C7CD"/>
<rect x="382" y="138" width="9" height="1" fill="#C5C7CD"/>
<rect x="382" y="132" width="9" height="1" fill="#C5C7CD"/>
<rect x="382" y="126" width="9" height="1" fill="#C5C7CD"/>
<rect x="382" y="120" width="9" height="1" fill="#C5C7CD"/>
<rect x="382" y="114" width="9" height="1" fill="#C5C7CD"/>
<rect x="382" y="108" width="9" height="1" fill="#C5C7CD"/>
<rect x="382" y="102" width="9" height="1" fill="#C5C7CD"/>
<rect x="382" y="96" width="9" height="1" fill="#C5C7CD"/>
<rect x="382" y="90" width="9" height="1" fill="#C5C7CD"/>
<rect x="382" y="84" width="9" height="1" fill="#C5C7CD"/>
<rect x="382" y="78" width="9" height="1" fill="#C5C7CD"/>
<rect x="382" y="72" width="9" height="1" fill="#C5C7CD"/>
<rect x="382" y="66" width="9" height="1" fill="#C5C7CD"/>
<rect x="382" y="60" width="9" height="1" fill="#C5C7CD"/>
<rect x="382" y="54" width="9" height="1" fill="#C5C7CD"/>
<rect x="382" y="48" width="9" height="1" fill="#C5C7CD"/>
<rect x="382" y="42" width="9" height="1" fill="#C5C7CD"/>
<rect x="382" y="36" width="9" height="1" fill="#C5C7CD"/>
<rect x="382" y="30" width="9" height="1" fill="#C5C7CD"/>
<rect x="382" y="24" width="9" height="1" fill="#C5C7CD"/>
<rect x="382" y="18" width="9" height="1" fill="#C5C7CD"/>
<rect x="382" y="12" width="9" height="1" fill="#C5C7CD"/>
<rect x="382" y="6" width="9" height="1" fill="#C5C7CD"/>
<rect x="376" width="15" height="1" fill="#C5C7CD"/>
</svg>
