<svg viewBox="0 0 60 60" fill="none" xmlns="http://www.w3.org/2000/svg">
  <path
    d="M30.4004 10.5C22.1109 10.5 15.4004 17.2653 15.4004 25.6224V49.5H45.4004V25.6224C45.4004 17.2653 38.6899 10.5 30.4004 10.5ZM39.8741 16.0714L30.953 25.0653V12.1714C34.4267 12.251 37.5846 13.7633 39.8741 16.0714ZM29.3741 12.1714V25.0653L20.6899 16.3102C22.9004 14.002 25.9793 12.4102 29.3741 12.1714ZM19.6635 17.5837L27.6372 25.6224H16.9793C16.9793 22.598 18.0057 19.8122 19.6635 17.5837ZM16.9793 47.9082V27.2143H24.8741V47.9082H16.9793ZM26.453 47.9082V27.2143H34.3478V47.9082H26.453ZM43.8214 47.9082H35.9267V27.2143H43.8214V47.9082ZM32.6109 25.6224L40.9004 17.2653C42.7162 19.5735 43.8214 22.4388 43.8214 25.6224H32.6109Z"
    fill="currentColor"
  ></path>
</svg>